<?xml version="1.0" encoding="utf-8"?>
<!-- Generator: Adobe Illustrator 18.1.1, SVG Export Plug-In . SVG Version: 6.00 Build 0)  -->
<svg version="1.1" id="Capa_1" xmlns="http://www.w3.org/2000/svg" xmlns:xlink="http://www.w3.org/1999/xlink" x="0px" y="0px"
	 width="30px" height="30px" viewBox="110 45.1 792 701.7" enable-background="new 110 45.1 792 701.7" xml:space="preserve">
	<g>
		<path fill="#030104" d="M217.7,729.2c0,0-0.7,17.7,16.6,17.7c21.5,0,199.6-0.2,199.6-0.2l0.3-163.6c0,0-2.8-27,23.4-27h82.8 c31,0,29,27,29,27l-0.4,163.1c0,0,168.9,0,195.4,0c22,0,21-22,21-22V422.5l-275.4-245l-292.4,245 C217.7,422.5,217.7,729.2,217.7,729.2z"/>
		<path fill="#030104" d="M110,399.7c0,0,24.8,45.8,79,0L512.5,126l303.3,272c62.7,45.2,86.1,0,86.1,0L512.5,45.1L110,399.7z"/>
		<polygon fill="#030104" points="808.5,125.3 730.5,125.3 730.8,219.9 808.5,285.8 	"/>
	</g>
</svg>
