<?xml version="1.0" encoding="utf-8"?>
<!-- Generator: Adobe Illustrator 18.1.1, SVG Export Plug-In . SVG Version: 6.00 Build 0)  -->
<svg version="1.1" id="Layer_1" xmlns="http://www.w3.org/2000/svg" xmlns:xlink="http://www.w3.org/1999/xlink" x="0px" y="0px"
	 viewBox="0 0 579.4 137" enable-background="new 0 0 579.4 137" xml:space="preserve">
<g>
	<rect x="364.4" y="107.3" fill="none" width="7.1" height="3.6"/>
	<rect x="364.4" y="123.1" fill="none" width="7.1" height="3.6"/>
	<rect x="359.7" y="107.3" fill="none" width="3.6" height="19.5"/>
	<polygon fill="none" points="340,126.7 343.6,126.7 343.6,107.2 340,107.2 	"/>
	<path fill="none" d="M353.2,112.2c0-3.2-3-5-5.8-5h-2.7v3.3h2.1c1.7,0,2.6,0.7,2.6,2.1c0,1.2-0.8,2.3-2.4,2.3h-2v2.7h2.4
		c1.3,0,2.8,1,2.8,2.8c0,1.8-1.4,2.9-3.1,2.9h-1.9v3.5h2.4c3,0,6.2-2.1,6.2-6.3c0-2.2-1-3.6-1.7-4.4
		C352.9,114.9,353.2,114,353.2,112.2z"/>
	<polygon fill="none" points="377.8,126.8 381.5,126.8 381.5,117.5 377.8,113.4 	"/>
	<polygon fill="none" points="387.3,116.7 391,120.8 391,107 387.3,107 	"/>
	<polygon fill="none" points="380.8,107 377.8,107 377.8,111.6 382.4,116.9 388.1,126.8 391,126.8 391,122.6 386.9,118 	"/>
	<path fill="none" d="M403.7,42.5c-7.7,0-11.9,5.9-11.9,11.6s4.2,11.7,11.9,11.7c7.7,0,11.9-6,11.9-11.7S411.3,42.5,403.7,42.5z"/>
	<rect x="396.6" y="107.3" fill="none" width="3.6" height="19.5"/>
	<path fill="none" d="M28.5,13.5c-3.8,0-7.6,0.2-11.4,0.4l-1,0.4c0,34.5,1.3,69.5-0.2,103.9c1.9,0.2,3.8,0.2,5.3,0.4
		c4.7,0,9.5-0.4,14.2-0.4V102c0.4,0.2,0.4-0.6,0-0.4c0.2-7,0.6-14.1,0.6-21.1c0-22.1,0.4-44.3-0.8-66.4
		C33.1,13.5,30.6,13.5,28.5,13.5z"/>
	<rect x="364.4" y="115.5" fill="none" width="5.3" height="3.6"/>
	<path fill="none" d="M537.4,34.7h20.2c1.1,0,1.8-0.7,1.8-1.8V30c0-5.7-4.2-11.7-11.9-11.7c-7.7,0-11.9,6-11.9,11.7v2.9
		C535.6,34.1,536.2,34.7,537.4,34.7z"/>
	<path fill="none" d="M268.4,14.7h-13.8h-7c-4.7,10.3-9.3,20.7-14,31.2c-2.5,5.7-7.4,12.2-8.7,18.1c-0.6,2.5-0.4,5.1-0.4,8
		c0,4.6,0.2,9.1,0,13.7l0.2,0.6c0,0.6-0.2,1.1-0.2,1.7l0.4,31.2l0.4,0.2l18.6-0.2l0.2-0.6c0.2-17.7,1-35.4,0.2-52.9
		c8.7-16.6,16.9-33.5,24.5-50.6L268.4,14.7z"/>
	<path fill="none" d="M78.4,22.1c0-1.1-1.3-1.1-1.9-2.1l-1.7-1.3l-1.1-0.8v0.2c-5.5-4.4-12.9-4.9-19.3-4.9c-3.8,0-7.6,0.2-11.4,0.2
		c-0.9,0.4-1.3,1.3-1.3,2.3v13.5c0,0.4,0.6,2.3,0.8,2.7c5.5,0,23.9-3,23.9,7.8c0,17.5-0.4,35-0.6,52.5c-0.4,1.1-0.4,2.7-1.5,3.4
		l-1.3,2.1h-0.2c-2.5,3.4-18,2.1-20.7,2.1l-0.8,0.4L41,117.1c0,2.3,10.4,1.7,12.9,1.7c27.1,0,32.1-19,32.1-42.1
		c0-6.3,0.4-38.8-0.9-42.8C83.5,29.1,81.8,25.7,78.4,22.1z"/>
	<rect x="475.3" y="115.5" fill="none" width="5.3" height="3.6"/>
	<path fill="none" d="M221.9,15.8l-1-0.8l-18.6-0.6c-0.4,0-1,0.4-1.1,0.4c1.3,4.8,17.3,40.2,19.5,43.2v-0.2
		c3.6-7,7.4-14.1,10.6-21.3C230.6,32.5,224.2,19.8,221.9,15.8z"/>
	<path fill="none" d="M435.7,120.7v-7.5c0-1,0.6-2.6,2.3-2.6V107c-3.6-0.1-6.1,2.8-6.1,5.9v8c0,3.1,2.5,5.9,6.1,5.9v-3.6
		C436.3,123.3,435.7,121.7,435.7,120.7z"/>
	<path fill="none" d="M515,107.1v3.5c1.7,0,2.3,1.6,2.3,2.6v7.5c0,1-0.6,2.6-2.3,2.6v3.6c3.6,0.1,6.1-2.8,6.1-5.9v-8
		C521.1,109.9,518.6,107,515,107.1z"/>
	<polygon fill="none" points="527.3,126.8 530.9,126.8 530.9,117.5 527.3,113.4 	"/>
	<path fill="none" d="M511.5,120.7v-7.5c0-1,0.6-2.6,2.3-2.6V107c-3.6-0.1-6.1,2.8-6.1,5.9v8c0,3.1,2.5,5.9,6.1,5.9v-3.6
		C512.1,123.3,511.5,121.7,511.5,120.7z"/>
	<path fill="none" d="M495.6,107v3.6c1.5,0,2.5,1.4,2.5,2.3h3.7C501.8,109.3,498.7,107,495.6,107z"/>
	<polygon fill="none" points="536.8,116.7 540.5,120.8 540.5,107 536.8,107 	"/>
	<polygon fill="none" points="530.3,107 527.3,107 527.3,111.6 531.9,116.9 537.5,126.8 540.5,126.8 540.5,122.6 536.4,118 	"/>
	<path fill="none" d="M404.4,107.3h-3v3.6h3c1.5,0,1.6,1.1,1.6,1.8v8.8c0,0.7-0.1,1.8-1.6,1.8h-3v3.6h3c2.8,0,5.3-1.9,5.3-5.6v-8.4
		C409.7,109.2,407.2,107.3,404.4,107.3z"/>
	<path fill="none" d="M495.3,120h2.7c0,1.5-0.2,3.2-2.3,3.2v3.6c3,0,6.1-2.4,6.1-6v-3.7h-6.5V120z"/>
	<rect x="470.6" y="107.3" fill="none" width="3.6" height="19.5"/>
	<polygon fill="none" points="414.2,126.7 418.2,126.7 427.5,107.1 423.5,107.1 	"/>
	<path fill="none" d="M492.2,120.6v-7.5c0-1,0.5-2.6,2.2-2.6V107c-3.6-0.1-6.1,2.8-6.1,5.9v8c0,3.1,2.5,5.9,6.1,5.9v-3.5
		C492.8,123.2,492.2,121.6,492.2,120.6z"/>
	<rect x="451.3" y="107.2" fill="none" width="3.6" height="19.5"/>
	<path fill="none" d="M439.3,107.1v3.5c1.7,0,2.3,1.6,2.3,2.6v7.5c0,1-0.6,2.6-2.3,2.6v3.6c3.6,0.1,6.1-2.8,6.1-5.9v-8
		C445.4,109.9,442.9,107,439.3,107.1z"/>
	<path fill="none" d="M464.5,113.4v-0.3c0-2.7-1.9-5.9-5.5-5.9h-2.7v3.5h2c1.9,0,2.6,1.2,2.6,2.5c0,1.4-0.7,2.7-2.6,2.7h-2v3.9
		l4.1,7h4.1l-4.4-7.5C463.1,118.6,464.5,115.8,464.5,113.4z"/>
	<rect x="475.3" y="123.1" fill="none" width="7.1" height="3.6"/>
	<rect x="475.3" y="107.3" fill="none" width="7.1" height="3.6"/>
	<path fill="#FDFDFD" d="M0,0v137h101V0H0z M36.1,80.5c0,7-0.4,14.1-0.6,21.1c0.4-0.2,0.4,0.6,0,0.4v16.2c-4.7,0-9.5,0.4-14.2,0.4
		c-1.5-0.2-3.4-0.2-5.3-0.4c1.5-34.4,0.2-69.5,0.2-103.9l1-0.4c3.8-0.2,7.6-0.4,11.4-0.4c2.1,0,4.6,0,6.8,0.6
		C36.5,36.2,36.1,58.4,36.1,80.5z M86,76.7c0,23-4.9,42.1-32.1,42.1c-2.5,0-12.9,0.6-12.9-1.7l0.2-16.9l0.8-0.4
		c2.7,0,18.2,1.3,20.7-2.1h0.2l1.3-2.1c1.1-0.8,1.1-2.3,1.5-3.4c0.2-17.5,0.6-35,0.6-52.5c0-10.9-18.4-7.8-23.9-7.8
		c-0.2-0.4-0.8-2.3-0.8-2.7V15.6c0-1,0.4-1.9,1.3-2.3c3.8,0,7.6-0.2,11.4-0.2c6.5,0,13.8,0.6,19.3,4.9v-0.2l1.1,0.8l1.7,1.3
		c0.6,0.9,1.9,0.9,1.9,2.1c3.4,3.6,5.1,7,6.6,11.8C86.4,37.9,86,70.4,86,76.7z"/>
	<path fill="#FDFDFD" d="M114.5,0v137H170V0H114.5z M152.4,119.7h-0.6h-9.5h-4.7h-4.2h-1V14.8h1.5h18h0.4V119.7z"/>
	<path fill="#FDFDFD" d="M183.5,0v137h102.6V0H183.5z M220.7,58c-2.3-3-18.2-38.4-19.5-43.2c0.2,0,0.8-0.4,1.1-0.4l18.6,0.6l1,0.8
		c2.3,4,8.7,16.8,9.5,20.7c-3.2,7.2-7,14.3-10.6,21.3V58z M243.9,118.6l-0.2,0.6l-18.6,0.2l-0.4-0.2l-0.4-31.2
		c0-0.6,0.2-1.1,0.2-1.7l-0.2-0.6c0.2-4.6,0-9.1,0-13.7c0-2.9-0.2-5.5,0.4-8c1.3-5.9,6.3-12.4,8.7-18.1c4.7-10.5,9.3-20.9,14-31.2h7
		h13.8l0.2,0.4c-7.6,17.1-15.7,34.1-24.5,50.6C244.8,83.2,244.1,100.9,243.9,118.6z"/>
	<path fill="#FDFDFD" d="M509.4,96.2H302V137h277.4V96.4C556,96.6,532.9,96.2,509.4,96.2z M475.3,115.5h5.3v3.6h-5.3V115.5z
		 M364.4,115.5h5.3v3.6h-5.3V115.5z M343.6,126.7l-3.6,0v-19.5l3.6,0V126.7z M347.5,126.7h-2.4v-3.5h1.9c1.8,0,3.1-1.2,3.1-2.9
		c0-1.8-1.4-2.8-2.8-2.8H345v-2.7h2c1.6,0,2.4-1,2.4-2.3c0-1.4-0.9-2.1-2.6-2.1h-2.1v-3.3h2.7c2.8,0,5.8,1.8,5.8,5
		c0,1.8-0.3,2.7-1.2,3.8c0.7,0.8,1.7,2.2,1.7,4.4C353.7,124.6,350.5,126.7,347.5,126.7z M363.3,126.8h-3.6v-19.5h3.6V126.8z
		 M371.5,126.7h-7.1v-3.6h7.1V126.7z M371.5,110.9h-7.1v-3.6h7.1V110.9z M381.5,126.8l-3.7,0v-13.4l3.7,4.1V126.8z M391,126.8h-2.9
		l-5.6-9.8l-4.6-5.4V107h3l6.1,11l4.1,4.6V126.8z M391,120.8l-3.7-4.1V107h3.7V120.8z M400.2,126.8h-3.6v-19.5h3.6V126.8z
		 M409.7,121.2c0,3.7-2.5,5.6-5.3,5.6h-3v-3.6h3c1.5,0,1.6-1.1,1.6-1.8v-8.8c0-0.7-0.1-1.8-1.6-1.8h-3v-3.6h3c2.8,0,5.3,1.9,5.3,5.6
		V121.2z M418.2,126.7h-4l9.3-19.7l4,0L418.2,126.7z M438,126.8c-3.6,0.1-6.1-2.8-6.1-5.9v-8c0-3.1,2.5-5.9,6.1-5.9v3.6
		c-1.7,0-2.3,1.6-2.3,2.6v7.5c0,1,0.6,2.6,2.3,2.6V126.8z M445.4,120.9c0,3.1-2.5,5.9-6.1,5.9v-3.6c1.7,0,2.3-1.6,2.3-2.6v-7.5
		c0-1-0.6-2.6-2.3-2.6v-3.5c3.6-0.1,6.1,2.8,6.1,5.9V120.9z M454.9,126.7h-3.6v-19.5h3.6V126.7z M460.5,126.7l-4.1-7v-3.9h2
		c1.9,0,2.6-1.2,2.6-2.7c0-1.2-0.7-2.5-2.6-2.5h-2v-3.5h2.7c3.6,0,5.5,3.3,5.5,5.9v0.3c0,2.4-1.5,5.2-4.3,5.8l4.4,7.5H460.5z
		 M474.2,126.8h-3.6v-19.5h3.6V126.8z M482.4,126.7h-7.1v-3.6h7.1V126.7z M482.4,110.9h-7.1v-3.6h7.1V110.9z M494.4,126.7
		c-3.6,0.1-6.1-2.8-6.1-5.9v-8c0-3.1,2.5-5.9,6.1-5.9v3.6c-1.7,0-2.2,1.6-2.2,2.6v7.5c0,1,0.6,2.6,2.2,2.6V126.7z M501.8,120.8
		c0,3.6-3.1,6-6.1,6v-3.6c2.2,0,2.3-1.6,2.3-3.2h-2.7v-3h6.5V120.8z M498.1,112.9c0-1-0.9-2.3-2.5-2.3V107c3,0,6.1,2.4,6.1,5.9
		H498.1z M513.8,126.8c-3.6,0.1-6.1-2.8-6.1-5.9v-8c0-3.1,2.5-5.9,6.1-5.9v3.6c-1.7,0-2.3,1.6-2.3,2.6v7.5c0,1,0.6,2.6,2.3,2.6
		V126.8z M521.1,120.9c0,3.1-2.5,5.9-6.1,5.9v-3.6c1.7,0,2.3-1.6,2.3-2.6v-7.5c0-1-0.6-2.6-2.3-2.6v-3.5c3.6-0.1,6.1,2.8,6.1,5.9
		V120.9z M530.9,126.8l-3.7,0v-13.4l3.7,4.1V126.8z M540.5,126.8h-2.9l-5.6-9.8l-4.6-5.4V107h3l6.1,11l4.1,4.6V126.8z M540.5,120.8
		l-3.7-4.1V107h3.7V120.8z"/>
	<path fill="#FDFDFD" d="M333.2,81.3c14.5,0,23.6-8.3,26.7-16.3c0.5-1.1,1-3.6-1-4.9l-7.7-5c-1.8-1.1-3.7-1-4.9,0.8
		c-3.1,5.2-6,9.9-13.2,9.9c-7.7,0-11.9-6-11.9-11.7V30c0-5.7,4.2-11.7,11.9-11.7c7.2,0,10.1,4.7,13.2,9.9c1.1,1.8,3.1,2,4.9,0.8
		l7.7-5c2-1.3,1.5-3.7,1-4.9c-3.1-8-12.2-16.3-26.7-16.3c-17.6,0-29.3,12.7-29.3,27.2v24.1C303.9,68.6,315.6,81.3,333.2,81.3z"/>
	<path fill="#FDFDFD" d="M413.9,29.2c-2.8-1.1-6.7-2.1-10.3-2.1c-17.6,0-29.3,12.5-29.3,27s11.7,27.2,29.3,27.2
		c5.7,0,9.9-1.5,14.2-3.7c0.7-0.3,1.5-0.5,2.3,0.7c0.7,1,1.6,1.5,2.9,1.5h6.3c2.3,0,3.6-1.3,3.6-3.6V30c0-14.5-11.7-27.2-29.3-27.2
		c-7.3,0-14.5,2-21.5,5.9c-1.8,1-2.9,3.1-1.8,4.9l4.2,7c1.1,2,2.8,2.6,4.6,1.6c5-2.6,9.8-3.9,14.5-3.9c7.7,0,11.1,5.7,11.7,9.8
		C415.5,28.9,414.7,29.5,413.9,29.2z M415.5,54.1c0,5.7-4.2,11.7-11.9,11.7c-7.7,0-11.9-6-11.9-11.7s4.2-11.6,11.9-11.6
		C411.3,42.5,415.5,48.4,415.5,54.1z"/>
	<path fill="#FDFDFD" d="M467.3,73.8c1.3,4.1,3.9,7.5,8.5,7.5c4.6,0,7.2-3.4,8.5-7.5l21-65.6c0.7-1.8-0.8-3.7-3.4-3.7h-10.3
		c-1.8,0-3.6,1.5-4.2,3.6l-10.1,33c-0.5,1.5-0.8,2.3-1.5,2.3c-0.7,0-1-0.8-1.5-2.3L464.2,8c-0.7-2.1-2.4-3.6-4.2-3.6h-10.3
		c-2.6,0-4.1,2-3.4,3.7L467.3,73.8z"/>
	<path fill="#FDFDFD" d="M547.4,81.3c14.5,0,23.6-8.3,26.7-16.3c0.5-1.1,1-3.6-1-4.9l-7.7-5c-1.8-1.1-3.7-1-4.9,0.8
		c-3.1,5.2-6,9.9-13.2,9.9c-7.7,0-11.9-6-11.9-11.7v-2.9c0-1.1,0.7-1.8,1.8-1.8h32.2c4.6,0,7.2-2.6,7.2-7.2V30
		c0-14.5-11.7-27.2-29.3-27.2c-17.6,0-29.3,12.7-29.3,27.2v24.1C518.1,68.6,529.9,81.3,547.4,81.3z M535.6,30
		c0-5.7,4.2-11.7,11.9-11.7c7.7,0,11.9,6,11.9,11.7v2.9c0,1.1-0.7,1.8-1.8,1.8h-20.2c-1.1,0-1.8-0.7-1.8-1.8V30z"/>
</g>
</svg>
