<?xml version="1.0" encoding="UTF-8" ?>
<!DOCTYPE svg PUBLIC "-//W3C//DTD SVG 1.1//EN" "http://www.w3.org/Graphics/SVG/1.1/DTD/svg11.dtd">

<svg width="392pt" height="486pt" viewBox="0 0 392 486" version="1.1" xmlns="http://www.w3.org/2000/svg">
	<!-- <path fill="#ffffff" opacity="1.00" d=" M 0.00 0.00 L 392.00 0.00 L 392.00 486.00 L 0.00 486.00 L 0.00 0.00 M 215.10 24.14 C 173.74 61.40 131.61 97.85 91.90 136.89 C 74.41 154.17 56.95 171.79 43.30 192.35 C 27.07 216.48 18.36 245.12 16.04 273.97 C 14.09 300.16 18.53 326.64 27.84 351.13 C 33.45 367.19 42.04 382.11 52.50 395.48 C 62.98 408.87 74.70 421.49 88.60 431.40 C 117.64 453.13 153.68 465.55 189.98 465.93 C 219.97 466.83 250.19 459.82 276.62 445.58 C 292.12 437.95 305.98 427.36 318.15 415.16 C 328.96 405.08 338.09 393.31 345.54 380.56 C 360.17 355.86 370.21 327.88 371.08 298.98 C 371.91 282.84 370.80 266.57 367.22 250.79 C 359.97 216.73 342.03 185.15 316.95 161.06 C 307.11 150.93 295.43 142.84 283.32 135.68 C 281.70 134.79 280.06 133.83 278.23 133.47 C 274.39 135.84 271.03 139.02 268.35 142.64 C 273.33 145.68 278.52 148.39 283.36 151.67 C 309.14 168.31 329.78 192.53 342.67 220.33 C 351.02 237.73 355.50 256.80 357.21 275.96 C 359.76 308.02 352.51 340.76 336.81 368.81 C 324.87 389.35 309.22 408.08 289.47 421.52 C 254.77 447.25 209.45 457.34 166.97 450.22 C 151.39 447.71 136.37 442.46 122.05 435.91 C 109.90 430.50 99.25 422.37 88.87 414.18 C 74.19 402.40 62.33 387.45 52.60 371.41 C 45.01 358.68 39.62 344.76 35.46 330.58 C 31.61 316.39 29.08 301.74 29.25 287.00 C 28.94 267.89 32.88 248.94 38.95 230.90 C 44.12 215.73 52.28 201.71 62.06 189.07 C 80.84 165.65 103.09 145.38 125.23 125.24 C 160.83 92.81 196.73 60.72 233.07 29.13 C 235.16 27.25 237.31 25.38 238.86 23.02 C 236.09 19.00 232.62 15.10 228.12 13.02 C 223.41 16.27 219.45 20.45 215.10 24.14 M 241.95 59.93 C 209.08 88.00 176.54 116.47 144.52 145.51 C 129.67 158.63 115.34 172.35 101.87 186.89 C 88.59 200.69 76.23 215.85 68.56 233.56 C 57.99 258.59 54.90 286.79 60.30 313.46 C 64.17 332.57 72.43 350.63 83.24 366.79 C 98.62 387.98 119.83 405.14 144.29 414.70 C 167.28 423.97 192.82 425.98 217.19 422.08 C 232.52 419.16 247.75 414.41 261.09 406.14 C 272.94 399.07 284.37 390.96 293.51 380.52 C 303.85 368.66 313.03 355.56 318.90 340.89 C 325.14 325.35 329.06 308.76 329.35 291.98 C 329.97 270.14 324.58 248.38 315.28 228.70 C 307.91 213.07 296.54 199.74 284.25 187.76 C 274.27 178.07 261.75 171.67 249.40 165.57 C 247.39 164.82 244.83 163.11 242.87 164.84 C 239.63 167.33 236.03 169.86 234.15 173.60 C 238.21 175.74 242.59 177.19 246.72 179.18 C 268.22 189.28 286.14 206.28 298.51 226.45 C 311.43 248.24 317.36 274.08 315.29 299.32 C 313.82 316.97 307.91 334.04 299.57 349.57 C 291.57 363.95 279.63 375.67 267.01 386.01 C 259.06 392.64 249.67 397.25 240.14 401.15 C 217.71 410.62 192.33 412.80 168.56 407.64 C 142.30 402.31 118.06 387.68 101.06 366.96 C 85.71 349.84 76.58 327.88 72.78 305.37 C 68.59 277.70 73.95 248.52 88.60 224.59 C 95.81 213.13 104.74 202.84 114.29 193.28 C 136.44 170.71 159.90 149.45 184.00 128.98 C 210.03 107.02 236.03 85.02 261.93 62.90 C 265.25 59.96 268.94 57.41 271.84 54.03 C 269.08 50.00 265.46 46.37 261.06 44.17 C 254.20 48.77 248.38 54.76 241.95 59.93 M 292.12 74.33 C 288.64 76.29 285.90 79.28 282.92 81.88 C 262.79 99.76 242.60 117.56 222.48 135.44 C 193.22 161.49 163.84 187.43 135.85 214.85 C 125.52 224.71 115.51 235.42 109.60 248.61 C 100.62 268.80 98.83 292.29 105.54 313.41 C 109.55 326.70 116.74 338.82 125.39 349.60 C 134.60 360.16 146.70 367.88 159.41 373.57 C 188.15 385.47 222.82 381.25 247.88 362.84 C 257.29 355.32 265.92 346.61 272.42 336.42 C 286.51 312.54 289.61 282.30 279.74 256.28 C 275.53 245.37 268.83 235.60 261.27 226.74 C 254.42 218.70 245.45 212.88 236.44 207.55 C 228.93 203.14 220.34 201.18 211.99 199.03 C 209.52 198.59 206.54 197.48 204.38 199.37 C 200.21 202.83 195.85 206.26 192.72 210.74 C 198.62 211.43 204.62 211.28 210.45 212.59 C 226.39 216.18 241.26 224.65 252.10 236.93 C 264.29 250.58 271.53 268.64 271.83 286.96 C 272.26 302.53 267.84 318.22 259.25 331.23 C 248.68 347.74 231.50 359.68 212.57 364.55 C 188.62 369.79 161.63 364.61 143.35 347.67 C 133.37 337.57 124.31 326.07 119.37 312.62 C 111.10 289.83 114.92 263.42 128.43 243.42 C 134.51 234.36 142.37 226.69 150.46 219.43 C 186.33 186.23 223.03 153.94 260.24 122.24 C 274.46 109.83 289.09 97.82 302.68 84.72 C 300.04 80.52 296.32 76.95 292.12 74.33 Z" /> -->
	<path fill="#33BFD0" opacity="1.00" d=" M 215.10 24.14 C 219.45 20.45 223.41 16.27 228.12 13.02 C 232.62 15.10 236.09 19.00 238.86 23.02 C 237.31 25.38 235.16 27.25 233.07 29.13 C 196.73 60.72 160.83 92.81 125.23 125.24 C 103.09 145.38 80.84 165.65 62.06 189.07 C 52.28 201.71 44.12 215.73 38.95 230.90 C 32.88 248.94 28.94 267.89 29.25 287.00 C 29.08 301.74 31.61 316.39 35.46 330.58 C 39.62 344.76 45.01 358.68 52.60 371.41 C 62.33 387.45 74.19 402.40 88.87 414.18 C 99.25 422.37 109.90 430.50 122.05 435.91 C 136.37 442.46 151.39 447.71 166.97 450.22 C 209.45 457.34 254.77 447.25 289.47 421.52 C 309.22 408.08 324.87 389.35 336.81 368.81 C 352.51 340.76 359.76 308.02 357.21 275.96 C 355.50 256.80 351.02 237.73 342.67 220.33 C 329.78 192.53 309.14 168.31 283.36 151.67 C 278.52 148.39 273.33 145.68 268.35 142.64 C 271.03 139.02 274.39 135.84 278.23 133.47 C 280.06 133.83 281.70 134.79 283.32 135.68 C 295.43 142.84 307.11 150.93 316.95 161.06 C 342.03 185.15 359.97 216.73 367.22 250.79 C 370.80 266.57 371.91 282.84 371.08 298.98 C 370.21 327.88 360.17 355.86 345.54 380.56 C 338.09 393.31 328.96 405.08 318.15 415.16 C 305.98 427.36 292.12 437.95 276.62 445.58 C 250.19 459.82 219.97 466.83 189.98 465.93 C 153.68 465.55 117.64 453.13 88.60 431.40 C 74.70 421.49 62.98 408.87 52.50 395.48 C 42.04 382.11 33.45 367.19 27.84 351.13 C 18.53 326.64 14.09 300.16 16.04 273.97 C 18.36 245.12 27.07 216.48 43.30 192.35 C 56.95 171.79 74.41 154.17 91.90 136.89 C 131.61 97.85 173.74 61.40 215.10 24.14 Z" />
	<path fill="#33BFD0" opacity="1.00" d=" M 241.95 59.93 C 248.38 54.76 254.20 48.77 261.06 44.17 C 265.46 46.37 269.08 50.00 271.84 54.03 C 268.94 57.41 265.25 59.96 261.93 62.90 C 236.03 85.02 210.03 107.02 184.00 128.98 C 159.90 149.45 136.44 170.71 114.29 193.28 C 104.74 202.84 95.81 213.13 88.60 224.59 C 73.95 248.52 68.59 277.70 72.78 305.37 C 76.58 327.88 85.71 349.84 101.06 366.96 C 118.06 387.68 142.30 402.31 168.56 407.64 C 192.33 412.80 217.71 410.62 240.14 401.15 C 249.67 397.25 259.06 392.64 267.01 386.01 C 279.63 375.67 291.57 363.95 299.57 349.57 C 307.91 334.04 313.82 316.97 315.29 299.32 C 317.36 274.08 311.43 248.24 298.51 226.45 C 286.14 206.28 268.22 189.28 246.72 179.18 C 242.59 177.19 238.21 175.74 234.15 173.60 C 236.03 169.86 239.63 167.33 242.87 164.84 C 244.83 163.11 247.39 164.82 249.40 165.57 C 261.75 171.67 274.27 178.07 284.25 187.76 C 296.54 199.74 307.91 213.07 315.28 228.70 C 324.58 248.38 329.97 270.14 329.35 291.98 C 329.06 308.76 325.14 325.35 318.90 340.89 C 313.03 355.56 303.85 368.66 293.51 380.52 C 284.37 390.96 272.94 399.07 261.09 406.14 C 247.75 414.41 232.52 419.16 217.19 422.08 C 192.82 425.98 167.28 423.97 144.29 414.70 C 119.83 405.14 98.62 387.98 83.24 366.79 C 72.43 350.63 64.17 332.57 60.30 313.46 C 54.90 286.79 57.99 258.59 68.56 233.56 C 76.23 215.85 88.59 200.69 101.87 186.89 C 115.34 172.35 129.67 158.63 144.52 145.51 C 176.54 116.47 209.08 88.00 241.95 59.93 Z" />
	<path fill="#33BFD0" opacity="1.00" d=" M 292.12 74.33 C 296.32 76.95 300.04 80.52 302.68 84.72 C 289.09 97.82 274.46 109.83 260.24 122.24 C 223.03 153.94 186.33 186.23 150.46 219.43 C 142.37 226.69 134.51 234.36 128.43 243.42 C 114.92 263.42 111.10 289.83 119.37 312.62 C 124.31 326.07 133.37 337.57 143.35 347.67 C 161.63 364.61 188.62 369.79 212.57 364.55 C 231.50 359.68 248.68 347.74 259.25 331.23 C 267.84 318.22 272.26 302.53 271.83 286.96 C 271.53 268.64 264.29 250.58 252.10 236.93 C 241.26 224.65 226.39 216.18 210.45 212.59 C 204.62 211.28 198.62 211.43 192.72 210.74 C 195.85 206.26 200.21 202.83 204.38 199.37 C 206.54 197.48 209.52 198.59 211.99 199.03 C 220.34 201.18 228.93 203.14 236.44 207.55 C 245.45 212.88 254.42 218.70 261.27 226.74 C 268.83 235.60 275.53 245.37 279.74 256.28 C 289.61 282.30 286.51 312.54 272.42 336.42 C 265.92 346.61 257.29 355.32 247.88 362.84 C 222.82 381.25 188.15 385.47 159.41 373.57 C 146.70 367.88 134.60 360.16 125.39 349.60 C 116.74 338.82 109.55 326.70 105.54 313.41 C 98.83 292.29 100.62 268.80 109.60 248.61 C 115.51 235.42 125.52 224.71 135.85 214.85 C 163.84 187.43 193.22 161.49 222.48 135.44 C 242.60 117.56 262.79 99.76 282.92 81.88 C 285.90 79.28 288.64 76.29 292.12 74.33 Z" />
</svg>
