<?xml version="1.0" encoding="UTF-8" ?>
<!DOCTYPE svg PUBLIC "-//W3C//DTD SVG 1.1//EN" "http://www.w3.org/Graphics/SVG/1.1/DTD/svg11.dtd">

<svg width="1000pt" height="1000pt" viewBox="25 140 900 700" version="1.1" xmlns="http://www.w3.org/2000/svg">
	<path fill="#424242" stroke="#424242" stroke-width="0.09375" opacity="1.00" d=" M 458.57 242.53 C 489.63 214.82 520.48 186.87 551.82 159.48 C 557.96 163.85 563.81 168.81 568.16 175.03 C 564.09 180.33 558.73 184.37 553.79 188.78 C 494.91 240.15 436.62 292.22 379.08 345.08 C 355.11 367.04 331.57 389.57 310.59 414.44 C 292.80 434.81 278.48 458.25 268.91 483.56 C 261.76 483.42 254.61 483.56 247.46 483.48 C 257.85 453.02 274.88 425.10 295.69 400.65 C 319.39 372.19 346.35 346.71 372.96 321.02 C 400.94 294.26 429.80 268.44 458.57 242.53 Z" />
	<path fill="#424242" stroke="#424242" stroke-width="0.09375" opacity="1.00" d=" M 588.46 216.65 C 592.66 213.17 596.65 209.41 601.20 206.36 C 607.36 210.53 613.20 215.36 617.60 221.42 C 608.77 230.03 598.95 237.56 589.71 245.71 C 557.13 273.47 524.48 301.14 491.74 328.71 C 453.56 360.67 416.65 394.18 381.68 429.63 C 365.32 445.78 350.13 463.37 338.85 483.50 C 331.14 483.50 323.43 483.52 315.72 483.49 C 330.87 452.49 355.37 427.65 379.17 403.22 C 402.08 379.73 426.89 358.22 451.21 336.23 C 496.43 295.76 542.20 255.91 588.46 216.65 Z" />
	<path fill="#424242" stroke="#424242" stroke-width="0.09375" opacity="1.00" d=" M 635.16 262.20 C 639.11 258.46 643.24 254.89 647.64 251.66 C 653.74 256.19 659.58 261.25 663.93 267.54 C 638.42 290.91 612.21 313.48 585.81 335.83 C 529.54 383.83 474.31 433.15 420.14 483.45 C 411.19 483.59 402.23 483.47 393.27 483.49 C 402.82 472.36 413.62 462.41 424.13 452.23 C 448.76 428.46 474.03 405.35 499.58 382.57 C 544.57 342.22 589.97 302.33 635.16 262.20 Z" />
	<path fill="#424242" stroke="#424242" stroke-width="0.09375" opacity="1.00" d=" M 611.83 354.46 C 615.89 348.89 621.41 344.59 626.85 340.44 C 633.28 342.75 638.85 346.74 644.64 350.26 C 658.53 359.07 671.91 368.86 683.47 380.61 C 696.61 393.53 708.90 407.37 719.49 422.47 C 728.67 435.50 736.22 449.62 742.91 464.07 C 759.05 498.99 766.72 537.60 766.54 576.00 C 759.71 576.00 752.87 576.00 746.04 576.00 C 746.43 535.32 736.73 494.48 717.37 458.66 C 711.72 448.20 705.40 438.10 698.52 428.41 C 688.32 414.21 676.09 401.64 663.31 389.78 C 647.74 375.87 630.07 364.52 611.83 354.46 Z" />
	<path fill="#424242" stroke="#424242" stroke-width="0.09375" opacity="1.00" d=" M 575.51 386.39 C 580.40 386.81 584.99 389.47 589.36 391.67 C 604.91 399.42 620.27 408.03 633.29 419.65 C 647.26 432.75 660.14 447.12 670.78 463.07 C 679.37 475.70 685.66 489.72 690.94 504.01 C 699.36 527.00 703.94 551.48 703.63 576.00 C 696.78 576.00 689.94 576.00 683.10 576.00 C 683.16 553.94 679.70 531.78 671.88 511.11 C 666.08 495.87 658.88 481.04 649.20 467.88 C 630.76 442.89 606.75 421.54 578.30 408.68 C 572.11 406.10 565.97 403.40 559.94 400.46 C 564.70 395.32 569.89 390.56 575.51 386.39 Z" />
	<path fill="#424242" stroke="#424242" stroke-width="0.09375" opacity="1.00" d=" M 516.40 439.23 C 519.46 436.81 523.57 438.37 527.02 438.97 C 540.86 442.49 555.19 445.77 567.33 453.66 C 580.17 461.34 592.67 470.09 602.31 481.67 C 614.34 495.79 624.71 511.63 630.73 529.27 C 635.66 544.30 638.11 560.16 637.82 575.99 C 631.00 576.01 624.17 576.00 617.35 575.99 C 617.65 555.60 612.87 535.05 602.71 517.30 C 588.75 491.20 564.06 471.22 535.88 462.36 C 523.67 457.63 510.37 457.83 497.52 456.56 C 503.53 450.49 509.79 444.64 516.40 439.23 Z" />
	<path fill="#424242" stroke="#424242" stroke-width="0.09375" opacity="1.00" d=" M 467.94 512.90 C 479.94 502.52 497.98 501.66 512.11 507.90 C 510.47 512.81 508.78 517.71 507.09 522.61 C 499.06 519.04 488.97 518.22 481.43 523.38 C 474.42 528.39 470.79 536.80 469.12 545.01 C 479.84 534.74 499.05 536.37 508.66 547.41 C 520.01 559.83 519.40 581.45 506.89 592.87 C 499.33 600.19 487.87 602.00 477.89 599.73 C 466.88 597.24 457.90 588.62 453.61 578.36 C 449.56 568.54 449.07 557.56 450.51 547.14 C 452.35 534.27 458.15 521.63 467.94 512.90 M 478.45 552.64 C 473.93 553.57 468.83 556.17 467.73 561.05 C 467.06 569.19 471.06 577.48 477.59 582.33 C 482.95 586.30 491.35 585.95 495.85 580.83 C 502.06 573.66 501.14 561.20 493.47 555.40 C 489.23 552.20 483.53 551.73 478.45 552.64 Z" />
	<path fill="#424242" stroke="#424242" stroke-width="0.09375" opacity="1.00" d=" M 89.02 529.02 C 101.68 529.05 114.35 529.04 127.01 529.02 C 135.26 528.75 143.23 534.22 146.20 541.89 C 149.29 549.34 147.32 558.32 141.65 564.00 C 145.53 567.99 147.93 573.43 147.63 579.05 C 147.65 589.45 138.47 598.90 128.04 598.95 C 115.04 598.99 102.03 598.93 89.02 598.98 C 89.05 575.66 89.05 552.34 89.02 529.02 M 100.72 540.49 C 100.73 546.34 100.71 552.19 100.73 558.04 C 108.47 558.04 116.21 558.03 123.96 558.05 C 126.55 557.98 129.38 558.14 131.63 556.61 C 135.49 554.42 136.93 549.07 134.82 545.21 C 133.40 542.27 130.16 540.50 126.94 540.53 C 118.20 540.41 109.46 540.52 100.72 540.49 M 100.72 569.49 C 100.72 575.49 100.72 581.50 100.72 587.51 C 109.47 587.48 118.21 587.59 126.96 587.46 C 131.58 587.64 135.71 583.58 135.77 578.99 C 136.15 574.09 131.94 569.31 126.93 569.53 C 118.19 569.41 109.45 569.52 100.72 569.49 Z" />
	<path fill="#424242" stroke="#424242" stroke-width="0.09375" opacity="1.00" d=" M 205.54 529.70 C 213.97 528.13 223.13 528.99 230.60 533.44 C 238.85 538.38 245.48 546.47 247.59 555.96 C 249.63 565.09 248.23 575.16 242.92 582.97 C 237.73 590.46 229.95 596.48 220.89 598.28 C 212.36 599.91 203.09 598.97 195.57 594.42 C 187.42 589.47 180.93 581.41 178.90 572.00 C 177.10 563.47 178.12 554.17 182.61 546.61 C 187.61 538.26 195.89 531.64 205.54 529.70 M 206.34 541.54 C 195.73 544.69 188.35 556.04 190.07 567.03 C 191.20 578.27 201.59 587.69 212.94 587.43 C 224.86 587.99 235.78 577.75 236.46 565.94 C 237.52 555.92 231.14 545.99 221.94 542.21 C 217.02 540.21 211.41 540.05 206.34 541.54 Z" />
	<path fill="#424242" stroke="#424242" stroke-width="0.09375" opacity="1.00" d=" M 278.03 528.31 C 293.59 542.40 309.16 556.47 324.76 570.51 C 324.76 556.52 324.75 542.52 324.76 528.52 C 328.70 528.51 332.64 528.52 336.59 528.50 C 336.63 552.04 336.58 575.58 336.61 599.11 C 320.98 585.04 305.37 570.95 289.74 556.89 C 289.72 570.91 289.71 584.94 289.74 598.96 C 285.83 598.96 281.93 598.95 278.02 598.97 C 278.05 575.42 278.04 551.87 278.03 528.31 Z" />
	<path fill="#424242" stroke="#424242" stroke-width="0.09375" opacity="1.00" d=" M 367.03 529.02 C 375.70 529.09 384.37 528.95 393.05 529.09 C 410.73 529.97 425.98 546.22 425.63 563.96 C 426.00 581.38 411.40 597.50 394.03 598.85 C 385.03 599.13 376.02 598.87 367.02 598.97 C 367.05 575.66 367.05 552.34 367.03 529.02 M 378.72 540.49 C 378.72 556.16 378.72 571.84 378.72 587.51 C 383.47 587.45 388.24 587.69 392.99 587.31 C 400.58 586.61 407.52 581.71 411.02 574.98 C 414.70 568.26 414.70 559.69 411.00 552.98 C 407.31 546.00 399.92 541.05 391.99 540.61 C 387.57 540.36 383.14 540.52 378.72 540.49 Z" />
	<path fill="#424242" stroke="#424242" stroke-width="0.09375" opacity="1.00" d=" M 562.51 598.04 C 570.38 598.04 578.25 598.03 586.12 598.04 C 586.11 600.01 586.11 601.98 586.12 603.96 C 580.24 603.97 574.37 603.96 568.49 603.96 C 568.48 607.98 568.48 612.01 568.49 616.04 C 574.36 616.03 580.24 616.03 586.12 616.04 C 586.11 618.01 586.11 619.98 586.12 621.96 C 580.24 621.97 574.36 621.95 568.49 621.96 C 568.48 625.80 568.48 629.64 568.48 633.48 C 566.49 633.47 564.50 633.47 562.52 633.48 C 562.51 621.67 562.53 609.85 562.51 598.04 Z" />
	<path fill="#424242" stroke="#424242" stroke-width="0.09375" opacity="1.00" d=" M 621.51 598.04 C 631.33 598.03 641.15 598.05 650.97 598.02 C 650.96 600.00 650.96 601.98 650.97 603.98 C 647.06 603.95 643.15 603.95 639.24 603.97 C 639.23 613.79 639.25 623.63 639.24 633.46 C 637.28 633.47 635.33 633.50 633.39 633.57 C 633.13 623.70 633.36 613.83 633.27 603.96 C 629.35 603.96 625.43 603.96 621.51 603.96 C 621.51 601.98 621.50 600.01 621.51 598.04 Z" />
	<path fill="#424242" stroke="#424242" stroke-width="0.09375" opacity="1.00" d=" M 666.03 597.86 C 673.85 604.97 681.69 612.07 689.52 619.16 C 689.50 612.12 689.54 605.08 689.50 598.04 C 691.49 598.04 693.50 598.04 695.51 598.06 C 695.42 609.93 695.55 621.79 695.44 633.66 C 687.66 626.52 679.80 619.48 671.97 612.40 C 671.95 619.43 671.96 626.46 671.96 633.49 C 669.98 633.48 668.01 633.48 666.04 633.49 C 666.03 621.61 666.05 609.74 666.03 597.86 Z" />
	<path fill="#424242" stroke="#424242" stroke-width="0.09375" opacity="1.00" d=" M 710.51 598.03 C 718.38 598.04 726.25 598.03 734.12 598.04 C 734.11 600.01 734.11 601.98 734.12 603.96 C 728.24 603.97 722.37 603.96 716.49 603.96 C 716.47 606.98 716.47 610.01 716.49 613.04 C 722.37 613.03 728.24 613.03 734.12 613.04 C 734.11 615.01 734.11 616.98 734.12 618.96 C 728.24 618.96 722.36 618.96 716.49 618.96 C 716.48 621.81 716.47 624.66 716.48 627.52 C 722.32 627.49 728.17 627.57 734.01 627.47 C 734.13 629.46 734.10 631.46 734.13 633.48 C 726.26 633.49 718.39 633.48 710.52 633.48 C 710.51 621.66 710.52 609.85 710.51 598.03 Z" />
	<path fill="#424242" stroke="#424242" stroke-width="0.09375" opacity="1.00" d=" M 748.58 607.09 C 749.14 602.09 753.78 597.61 758.96 598.03 C 765.29 598.02 771.63 598.06 777.97 598.02 C 777.96 600.00 777.96 601.98 777.97 603.98 C 771.30 604.08 764.61 603.68 757.96 604.17 C 754.00 604.70 753.25 610.56 756.67 612.40 C 762.03 614.34 768.47 611.27 773.43 614.69 C 777.74 617.41 779.24 623.49 776.87 627.96 C 775.17 631.15 771.77 633.59 768.06 633.48 C 761.54 633.51 755.03 633.46 748.52 633.48 C 748.51 631.49 748.51 629.50 748.52 627.52 C 755.17 627.39 761.85 627.75 768.49 627.35 C 772.47 626.95 773.17 620.94 769.52 619.49 C 765.13 618.26 760.46 619.52 756.01 618.70 C 751.12 617.35 747.79 612.09 748.58 607.09 Z" />
	<path fill="#424242" stroke="#424242" stroke-width="0.09375" opacity="1.00" d=" M 796.02 615.98 C 790.32 610.65 793.19 599.81 800.88 598.22 C 808.06 597.79 815.29 598.16 822.49 598.04 C 822.48 600.01 822.48 601.98 822.49 603.96 C 815.69 604.15 808.84 603.57 802.07 604.27 C 798.21 605.11 797.96 611.05 801.49 612.55 C 806.49 614.03 812.09 611.76 816.91 614.07 C 820.80 616.06 823.18 620.60 822.36 624.95 C 821.67 629.45 817.61 633.34 813.00 633.46 C 806.34 633.54 799.69 633.45 793.04 633.49 C 793.03 631.49 793.02 629.50 793.03 627.51 C 799.67 627.39 806.33 627.76 812.97 627.34 C 816.83 627.02 817.73 621.27 814.28 619.63 C 808.41 617.51 800.74 621.31 796.02 615.98 Z" />
	<path fill="#424242" stroke="#424242" stroke-width="0.09375" opacity="1.00" d=" M 600.52 598.52 C 602.50 598.51 604.49 598.51 606.48 598.52 C 606.48 610.17 606.48 621.83 606.48 633.48 C 604.49 633.47 602.50 633.47 600.52 633.48 C 600.51 621.83 600.51 610.17 600.52 598.52 Z" />
	<path fill="#424242" stroke="#424242" stroke-width="0.09375" opacity="1.00" d=" M 240.70 633.51 C 247.75 633.48 254.81 633.49 261.86 633.51 C 270.81 667.52 286.80 699.68 308.81 727.15 C 319.32 740.85 331.68 753.08 345.25 763.76 C 357.75 773.52 370.53 783.07 384.58 790.53 C 398.71 797.99 413.79 803.45 428.94 808.44 C 460.16 818.48 493.48 820.78 526.02 817.91 C 560.45 814.31 594.11 803.43 623.98 785.90 C 647.78 771.16 670.61 754.05 688.12 731.98 C 708.50 707.71 724.26 679.61 734.15 649.50 C 741.33 649.49 748.52 649.49 755.71 649.50 C 746.76 678.18 732.90 705.21 715.89 729.92 C 705.28 745.01 692.47 758.40 678.86 770.80 C 671.10 777.77 663.29 784.75 654.73 790.75 C 639.26 801.68 622.40 810.48 605.10 818.13 C 592.57 823.99 579.43 828.43 565.94 831.48 C 540.54 837.93 514.19 840.63 488.02 839.11 C 476.25 838.57 464.46 837.77 452.87 835.60 C 441.57 832.97 430.12 830.84 419.10 827.14 C 405.32 822.31 391.65 817.03 378.62 810.40 C 363.90 803.03 350.35 793.56 337.19 783.73 C 322.08 772.37 308.92 758.68 296.73 744.28 C 277.21 721.08 260.54 695.01 250.87 666.12 C 246.91 655.44 243.44 644.57 240.70 633.51 Z" />
	<path fill="#424242" stroke="#424242" stroke-width="0.09375" opacity="1.00" d=" M 305.98 633.50 C 313.22 633.50 320.46 633.47 327.70 633.52 C 332.63 647.32 338.75 660.80 347.11 672.89 C 357.29 687.76 369.49 701.19 382.83 713.27 C 408.69 734.92 440.51 749.56 473.99 754.15 C 506.60 758.70 540.66 754.99 570.93 741.75 C 584.87 735.87 598.74 729.20 610.33 719.32 C 633.57 700.40 655.02 677.77 666.32 649.55 C 673.82 649.43 681.32 649.52 688.83 649.50 C 682.45 666.07 673.24 681.43 662.59 695.59 C 656.12 704.03 649.39 712.30 641.79 719.74 C 628.84 732.18 613.86 742.26 598.44 751.35 C 586.34 759.01 572.66 763.62 559.07 767.86 C 539.10 774.33 517.96 776.62 497.04 776.29 C 447.32 776.31 398.04 756.16 362.07 721.92 C 349.39 710.10 337.71 697.02 328.76 682.12 C 319.46 666.79 311.59 650.54 305.98 633.50 Z" />
	<path fill="#424242" stroke="#424242" stroke-width="0.09375" opacity="1.00" d=" M 377.02 633.50 C 384.97 633.49 392.92 633.49 400.87 633.51 C 408.24 644.41 416.77 654.54 426.16 663.76 C 448.83 683.09 479.46 692.38 509.07 689.88 C 517.41 689.33 525.79 688.32 533.82 685.88 C 543.92 682.07 554.33 678.51 563.23 672.23 C 572.73 665.65 582.11 658.58 589.37 649.50 C 598.00 649.50 606.63 649.48 615.27 649.51 C 605.20 664.15 592.10 676.43 578.07 687.20 C 565.27 695.81 550.99 702.11 536.16 706.26 C 505.82 714.23 472.65 711.98 444.03 698.93 C 428.83 691.25 414.10 682.13 402.11 669.90 C 394.76 662.73 389.43 653.89 383.79 645.40 C 381.36 641.53 379.10 637.56 377.02 633.50 Z" />
</svg>
