<?xml version="1.0" encoding="utf-8"?>
<!-- Generator: Adobe Illustrator 18.1.1, SVG Export Plug-In . SVG Version: 6.00 Build 0)  -->
<svg version="1.1" id="Layer_1" xmlns="http://www.w3.org/2000/svg" xmlns:xlink="http://www.w3.org/1999/xlink" x="0px" y="0px"
	 viewBox="-8.2 376.8 30.3 40.4" enable-background="new -8.2 376.8 30.3 40.4" xml:space="preserve">
<g>
	<g>
		<g>
			<g>
				<path d="M7,376.8c-8.4,0-15.2,6.8-15.2,15.2c0,8.4,12.6,25.3,15.2,25.3s15.2-16.9,15.2-25.3C22.2,383.6,15.4,376.8,7,376.8z
					 M7,402.1c-5.6,0-10.1-4.5-10.1-10.1c0-5.6,4.5-10.1,10.1-10.1s10.1,4.5,10.1,10.1C17.1,397.5,12.6,402.1,7,402.1z"/>
			</g>
		</g>
	</g>
</g>
<g>
	<g>
		<g>
			<path fill="#030104" d="M1.4,392v5.9c0,0,0,0.3,0.3,0.3c0.4,0,3.9,0,3.9,0l0-3.2c0,0-0.1-0.5,0.5-0.5h1.6c0.6,0,0.6,0.5,0.6,0.5
				l0,3.1c0,0,3.3,0,3.8,0c0.4,0,0.4-0.4,0.4-0.4V392L7,387.3L1.4,392z"/>
			<path fill="#030104" d="M7.1,384.7l-7.8,6.8c0,0,0.5,0.9,1.5,0l6.2-5.3l5.9,5.3c1.2,0.9,1.7,0,1.7,0L7.1,384.7z"/>
			<polygon fill="#030104" points="12.8,389.3 12.8,386.2 11.3,386.2 11.3,388.1 			"/>
		</g>
	</g>
</g>
</svg>
